<svg width="81" height="92" viewBox="0 0 81 92" fill="none" xmlns="http://www.w3.org/2000/svg">
<path d="M80.4707 33.215C80.4707 33.215 79.8428 1.87003 42.4046 0.606582C42.4046 0.606582 13.384 -2.42612 4.33845 23.8629C4.33845 23.8629 -3.95403 47.3711 3.83569 73.6601C3.83569 73.6601 9.48918 93.3779 29.2138 91.3547C29.2138 91.3547 47.9329 90.4691 42.4046 65.8234C42.4046 65.8234 81.7266 70.2475 80.4707 33.215ZM61.6786 11.8517C64.6305 11.8517 67.0233 14.259 67.0233 17.2287C67.0233 20.1985 64.6305 22.6058 61.6786 22.6058C58.7267 22.6058 56.3339 20.1985 56.3339 17.2287C56.3339 14.259 58.7267 11.8517 61.6786 11.8517ZM59.9387 57.9299C55.7602 57.9299 52.3722 54.5215 52.3722 50.3177C52.3722 46.1139 55.7602 42.7055 59.9387 42.7055C64.1173 42.7055 67.5052 46.1139 67.5052 50.3177C67.5052 54.5215 64.1173 57.9299 59.9387 57.9299ZM67.2632 38.6696C63.9608 38.6696 61.2843 35.9769 61.2843 32.6546C61.2843 29.3323 63.9608 26.6396 67.2632 26.6396C70.5656 26.6396 73.2422 29.3323 73.2422 32.6546C73.2422 35.9769 70.5656 38.6696 67.2632 38.6696Z" fill="#fff"/>
</svg>
