<svg width="1920" height="1000" viewBox="0 0 1920 1000" fill="none" xmlns="http://www.w3.org/2000/svg">
<g clip-path="url(#clip0_2376_12533)">
<rect width="1920" height="1000" fill="#333533"/>
<g clip-path="url(#clip1_2376_12533)">
<path d="M1922.22 373.08C1922.22 373.08 1862.71 310.57 1792.26 395.79C1789.25 391.68 1786.07 387.53 1782.69 383.34C1782.69 383.34 1699.78 264.78 1572.48 315.71C1572.48 315.71 1534.59 330.53 1488.57 364.83C1458.85 333.71 1388.72 277.84 1294.05 315.71C1294.05 315.71 1256.16 330.53 1210.14 364.83C1180.42 333.71 1110.29 277.84 1015.62 315.71C1015.62 315.71 974.16 331.93 925.31 369.69C898.67 340.09 826.13 275.76 726.28 315.71C726.28 315.71 688.39 330.53 642.37 364.83C612.65 333.71 542.52 277.84 447.85 315.71C447.85 315.71 409.96 330.53 363.94 364.83C334.22 333.71 264.09 277.84 169.42 315.71C169.42 315.71 54.92 360.49 -17.73 474.51C-17.73 474.51 -72.83 559.32 -1.27003 626.72C-1.27003 626.72 58.24 689.23 128.69 604.01C131.7 608.12 134.88 612.27 138.26 616.46C138.26 616.46 221.17 735.02 348.47 684.09C348.47 684.09 386.36 669.27 432.38 634.97C462.1 666.09 532.23 721.96 626.9 684.09C626.9 684.09 664.79 669.27 710.81 634.97C740.53 666.09 810.66 721.96 905.33 684.09C905.33 684.09 946.79 667.87 995.64 630.11C1022.28 659.71 1094.82 724.04 1194.67 684.09C1194.67 684.09 1232.56 669.27 1278.58 634.97C1308.3 666.09 1378.43 721.96 1473.1 684.09C1473.1 684.09 1510.99 669.27 1557.01 634.97C1586.73 666.09 1656.86 721.96 1751.53 684.09C1751.53 684.09 1866.03 639.31 1938.68 525.29C1938.68 525.29 1993.78 440.48 1922.22 373.08Z" fill="#8AD0E2"/>
</g>
<path d="M756.084 130.164V132.816H754.061V137.834C755.045 137.766 756.029 137.684 756.959 137.574L757.096 140.09C752.229 140.855 746.623 140.91 742.385 140.91L742.002 138.176C742.863 138.176 743.766 138.176 744.709 138.162V132.816H742.658V130.164H756.084ZM745.365 145.094V142.387H761.881V149.031H748.838V150.59H762.592V153.352H745.42V146.57H758.408V145.094H745.365ZM748.072 138.121C748.934 138.094 749.822 138.066 750.697 138.025V132.816H748.072V138.121ZM758.381 141.402V128.633H761.881V133.527H765.244V136.398H761.881V141.402H758.381ZM775.854 131.121V140.555H770.385V144.793C772.818 144.766 775.102 144.643 777.686 144.164L777.986 147.008C774.719 147.609 771.93 147.664 768.799 147.691H767.049V137.793H772.49V133.883H767.021V131.121H775.854ZM776.893 139.953V137.137H779.436V129.098H782.689V152.312H779.436V139.953H776.893ZM784.549 153.516V128.633H787.857V153.516H784.549ZM810.826 141.484V144.246H793.217V130.465H810.635V133.281H796.771V135.906H810.061V138.641H796.771V141.484H810.826ZM790.537 150.617V147.773H813.314V150.617H790.537ZM822.146 130.109C825.988 130.123 828.955 132.639 828.982 136.207C828.955 139.215 826.863 141.471 823.924 142.113V145.518C825.879 145.422 827.848 145.258 829.693 145.012L829.939 147.582C824.73 148.58 819.125 148.566 814.9 148.512L814.436 145.695C816.24 145.695 818.291 145.695 820.451 145.641V142.141C817.416 141.525 815.311 139.256 815.311 136.207C815.311 132.639 818.223 130.123 822.146 130.109ZM818.729 136.207C818.715 138.162 820.178 139.352 822.146 139.352C824.074 139.352 825.537 138.162 825.537 136.207C825.537 134.225 824.074 133.076 822.146 133.062C820.178 133.076 818.715 134.225 818.729 136.207ZM831.006 153.516V128.633H834.506V138.395H837.896V141.32H834.506V153.516H831.006ZM865.131 128.633V134.758H868.494V137.684H865.131V143.645H861.631V128.633H865.131ZM845.389 133.637V130.875H851.049V128.496H854.521V130.875H860.154V133.637H845.389ZM846.592 138.859C846.592 136.234 849.107 134.402 852.771 134.402C856.395 134.402 858.896 136.234 858.896 138.859C858.896 141.553 856.395 143.357 852.771 143.371C849.107 143.357 846.592 141.553 846.592 138.859ZM848.861 153.242V144.738H865.131V153.242H848.861ZM850.01 138.859C849.996 140.131 851.104 140.787 852.771 140.801C854.453 140.787 855.588 140.131 855.588 138.859C855.588 137.67 854.453 137.014 852.771 137.027C851.104 137.014 849.996 137.67 850.01 138.859ZM852.307 150.453H861.686V147.473H852.307V150.453ZM875.713 131.477C875.686 137.697 875.084 143.262 871.912 148.184L869.205 146.762C871.762 142.893 872.527 139.105 872.691 134.293H870.025V131.477H875.713ZM874.838 147.965C877.627 143.727 878.188 139.338 878.311 134.293H876.424V131.477H881.291C881.291 133.664 881.236 135.838 881.045 137.957H883.178V129.18H886.459V152.422H883.178V140.773H880.689C880.17 143.822 879.227 146.748 877.49 149.441L874.838 147.965ZM888.018 153.516V128.633H891.354V153.516H888.018ZM909.428 135.414C909.414 139.201 911.438 143.576 915.525 145.477L913.584 148.211C910.809 146.939 908.84 144.396 907.719 141.416C906.611 144.697 904.561 147.486 901.689 148.84L899.666 146.078C903.809 144.15 905.9 139.529 905.928 135.414V133.883H900.65V131.039H914.432V133.883H909.428V135.414ZM916.373 153.516V128.633H919.873V138.121H923.537V141.047H919.873V153.516H916.373ZM945.275 128.66V146.816H941.775V128.66H945.275ZM924.357 140.664C928.527 139.27 930.346 135.811 930.346 132.434V130.027H933.982V132.434C933.955 135.729 935.719 138.941 939.807 140.254L938.029 142.988C935.213 142.059 933.285 140.199 932.178 137.834C931.057 140.377 929.074 142.428 926.162 143.426L924.357 140.664ZM928.596 153.078V145.066H932.123V150.289H945.932V153.078H928.596ZM956.705 130.301C960.656 130.287 963.582 132.83 963.596 136.398C963.582 139.98 960.656 142.51 956.705 142.523C952.781 142.51 949.773 139.98 949.787 136.398C949.773 132.83 952.781 130.287 956.705 130.301ZM948.748 145.641C953.191 145.654 959.344 145.6 964.662 144.848L964.936 147.363C959.412 148.443 953.506 148.484 949.158 148.484L948.748 145.641ZM953.26 136.398C953.246 138.367 954.736 139.502 956.705 139.488C958.688 139.502 960.191 138.367 960.205 136.398C960.191 134.457 958.688 133.309 956.705 133.309C954.736 133.309 953.246 134.457 953.26 136.398ZM966.084 153.57V128.633H969.557V153.57H966.084ZM987.248 132.953C987.248 135.729 988.615 138.422 991.924 139.734L990.037 142.414C987.932 141.566 986.469 140.049 985.58 138.176C984.678 140.309 983.105 142.1 980.795 143.07L978.936 140.363C982.449 138.859 983.857 135.77 983.857 132.953V130.082H987.248V132.953ZM983.475 147.609V144.82H1000.67V153.516H997.201V147.609H983.475ZM992.033 143.59V129.043H995.287V134.703H997.365V128.66H1000.67V143.727H997.365V137.547H995.287V143.59H992.033ZM1014.84 128.988C1020.57 128.988 1023.88 130.492 1023.89 133.227C1023.88 136.002 1020.57 137.492 1014.84 137.492C1009.1 137.492 1005.76 136.002 1005.76 133.227C1005.76 130.492 1009.1 128.988 1014.84 128.988ZM1003.49 141.43V138.668H1026.19V141.43H1003.49ZM1006.12 145.422V142.879H1023.42V149.223H1009.56V150.727H1024.08V153.352H1006.14V146.789H1019.98V145.422H1006.12ZM1009.42 133.227C1009.41 134.443 1011.19 134.922 1014.84 134.922C1018.52 134.922 1020.28 134.443 1020.28 133.227C1020.28 132.119 1018.52 131.531 1014.84 131.531C1011.19 131.531 1009.41 132.119 1009.42 133.227ZM1057.3 138.066V140.91H1053.78V153.461H1050.28V128.633H1053.78V138.066H1057.3ZM1034.94 147.391V131.012H1038.41V144.506C1041.59 144.451 1045.01 144.15 1048.61 143.426L1048.96 146.324C1044.79 147.172 1040.76 147.391 1037.1 147.391H1034.94ZM1071.11 130.684V133.527H1062.85V137.629H1070.76V140.363H1062.85V145.066C1066.41 145.025 1069.32 144.875 1072.64 144.355L1072.97 147.172C1069.17 147.746 1065.78 147.855 1061.43 147.855H1059.33V130.684H1071.11ZM1074.47 153.516V128.633H1077.97V138.066H1081.64V140.992H1077.97V153.516H1074.47ZM1104.01 128.633V153.516H1100.64V141.074H1098.32V152.312H1095.04V129.043H1098.32V138.258H1100.64V128.633H1104.01ZM1083.55 147.445V131.395H1087.05V144.396C1089.05 144.342 1091.25 144.164 1093.64 143.699L1094 146.707C1090.66 147.281 1087.82 147.459 1085.25 147.445H1083.55ZM1129.52 147.773V150.617H1106.74V147.773H1116.34V143.18H1109.15V130.219H1112.65V134.074H1123.5V130.219H1126.97V143.18H1119.81V147.773H1129.52ZM1112.65 140.391H1123.5V136.863H1112.65V140.391ZM1138.92 134.895C1138.91 138.928 1140.03 143.084 1143.44 145.258L1141.55 147.965C1139.39 146.666 1138.04 144.506 1137.24 141.963C1136.35 144.779 1134.86 147.145 1132.61 148.512L1130.47 145.941C1134.17 143.658 1135.53 139.27 1135.53 135.059V130.766H1138.92V134.895ZM1140.81 139.871V137.027H1144.04V128.988H1147.29V152.367H1144.04V139.871H1140.81ZM1149.18 153.516V128.633H1152.51V153.516H1149.18ZM1177.92 147.746V150.617H1155.14V147.746H1160.22V141.648C1158.3 140.486 1157.13 138.723 1157.13 136.535C1157.13 132.502 1161.07 129.85 1166.49 129.836C1171.87 129.85 1175.85 132.502 1175.87 136.535C1175.85 138.682 1174.73 140.418 1172.86 141.58V147.746H1177.92ZM1160.58 136.535C1160.58 138.969 1162.92 140.473 1166.49 140.473C1170 140.473 1172.41 138.969 1172.42 136.535C1172.41 134.033 1170 132.584 1166.49 132.598C1162.92 132.584 1160.58 134.033 1160.58 136.535ZM1163.67 147.746H1169.33V142.906C1168.44 143.084 1167.48 143.18 1166.49 143.18C1165.49 143.18 1164.54 143.084 1163.67 142.92V147.746Z" fill="#8AD0E2"/>
<g clip-path="url(#clip2_2376_12533)">
<path d="M867.74 859.91H861.8V869.96H856V842H868.18C870.99 842 873.23 842.72 874.89 844.16C876.55 845.6 877.39 847.83 877.39 850.86C877.39 854.16 876.56 856.49 874.89 857.86C873.22 859.23 870.84 859.91 867.74 859.91ZM870.47 854.09C871.23 853.42 871.61 852.36 871.61 850.9C871.61 849.44 871.23 848.41 870.46 847.79C869.69 847.17 868.62 846.86 867.25 846.86H861.81V855.09H867.25C868.63 855.09 869.7 854.76 870.47 854.08V854.09Z" fill="#8AD0E2"/>
<path d="M897.22 864.21H886.92L884.99 869.96H878.88L888.86 842H895.46L905.36 869.96H899.02L897.22 864.21ZM895.59 859.39L892.1 848.39L888.5 859.39H895.59Z" fill="#8AD0E2"/>
<path d="M910.85 842H916.69V864.93H930.54V869.96H910.85V842Z" fill="#8AD0E2"/>
<path d="M936.52 842H942.36V864.93H956.21V869.96H936.52V842Z" fill="#8AD0E2"/>
<path d="M981.65 857.74H968.07V864.93H983.55V869.96H962.36V842H982.86V846.95H968.07V852.89H981.65V857.75V857.74Z" fill="#8AD0E2"/>
<path d="M1010.36 842V846.95H1002V869.96H996.12V846.95H987.72V842H1010.37H1010.36Z" fill="#8AD0E2"/>
<path d="M1035.17 857.74H1021.59V864.93H1037.07V869.96H1015.88V842H1036.38V846.95H1021.59V852.89H1035.17V857.75V857.74Z" fill="#8AD0E2"/>
<path d="M1063.03 857.74H1049.45V864.93H1064.93V869.96H1043.74V842H1064.24V846.95H1049.45V852.89H1063.03V857.75V857.74Z" fill="#8AD0E2"/>
</g>
</g>
<defs>
<clipPath id="clip0_2376_12533">
<rect width="1920" height="1000" fill="white"/>
</clipPath>
<clipPath id="clip1_2376_12533">
<rect width="1996.93" height="393.8" fill="white" transform="translate(-38 303)"/>
</clipPath>
<clipPath id="clip2_2376_12533">
<rect width="208.92" height="27.96" fill="white" transform="translate(856 842)"/>
</clipPath>
</defs>
</svg>
