<svg width="1920" height="1000" viewBox="0 0 1920 1000" fill="none" xmlns="http://www.w3.org/2000/svg">
<g clip-path="url(#clip0_2376_12507)">
<rect width="1920" height="1000" fill="#333533"/>
<g clip-path="url(#clip1_2376_12507)">
<path d="M1922.22 373.08C1922.22 373.08 1862.71 310.57 1792.26 395.79C1789.25 391.68 1786.07 387.53 1782.69 383.34C1782.69 383.34 1699.78 264.78 1572.48 315.71C1572.48 315.71 1534.59 330.53 1488.57 364.83C1458.85 333.71 1388.72 277.84 1294.05 315.71C1294.05 315.71 1256.16 330.53 1210.14 364.83C1180.42 333.71 1110.29 277.84 1015.62 315.71C1015.62 315.71 974.16 331.93 925.31 369.69C898.67 340.09 826.13 275.76 726.28 315.71C726.28 315.71 688.39 330.53 642.37 364.83C612.65 333.71 542.52 277.84 447.85 315.71C447.85 315.71 409.96 330.53 363.94 364.83C334.22 333.71 264.09 277.84 169.42 315.71C169.42 315.71 54.92 360.49 -17.73 474.51C-17.73 474.51 -72.83 559.32 -1.27003 626.72C-1.27003 626.72 58.24 689.23 128.69 604.01C131.7 608.12 134.88 612.27 138.26 616.46C138.26 616.46 221.17 735.02 348.47 684.09C348.47 684.09 386.36 669.27 432.38 634.97C462.1 666.09 532.23 721.96 626.9 684.09C626.9 684.09 664.79 669.27 710.81 634.97C740.53 666.09 810.66 721.96 905.33 684.09C905.33 684.09 946.79 667.87 995.64 630.11C1022.28 659.71 1094.82 724.04 1194.67 684.09C1194.67 684.09 1232.56 669.27 1278.58 634.97C1308.3 666.09 1378.43 721.96 1473.1 684.09C1473.1 684.09 1510.99 669.27 1557.01 634.97C1586.73 666.09 1656.86 721.96 1751.53 684.09C1751.53 684.09 1866.03 639.31 1938.68 525.29C1938.68 525.29 1993.78 440.48 1922.22 373.08Z" fill="#B5D681"/>
</g>
<path d="M818.277 135.414C818.264 139.201 820.287 143.576 824.375 145.477L822.434 148.211C819.658 146.939 817.689 144.396 816.568 141.416C815.461 144.697 813.41 147.486 810.539 148.84L808.516 146.078C812.658 144.15 814.75 139.529 814.777 135.414V133.883H809.5V131.039H823.281V133.883H818.277V135.414ZM825.223 153.516V128.633H828.723V138.121H832.387V141.047H828.723V153.516H825.223ZM854.207 128.633V153.516H850.68V128.633H854.207ZM833.371 146.461C839.797 143.426 842.627 139.488 843.188 133.965H834.711V131.23H846.742C846.729 138.777 844.09 145.053 835.203 149.25L833.371 146.461ZM879.062 128.633V153.516H875.781V128.633H879.062ZM857.105 145.887C862.15 142.906 864.365 139.283 864.844 134.402H858.555V131.586H868.316C868.316 132.83 868.234 134.033 868.084 135.195H870.559V129.18H873.867V152.422H870.559V144.219H867.031V141.402H870.559V138.012H867.51C866.348 142.127 863.805 145.586 859.156 148.348L857.105 145.887ZM885.898 129.754V132.707H890.984V129.754H894.484V140.609H882.426V129.754H885.898ZM884.914 144.93V142.223H901.43V148.977H888.387V150.59H902.141V153.352H884.969V146.488H897.957V144.93H884.914ZM885.898 137.875H890.984V135.332H885.898V137.875ZM897.93 141.293V128.633H901.43V133.473H904.793V136.289H901.43V141.293H897.93ZM917.234 128.988C922.963 128.988 926.271 130.492 926.285 133.227C926.271 136.002 922.963 137.492 917.234 137.492C911.492 137.492 908.156 136.002 908.156 133.227C908.156 130.492 911.492 128.988 917.234 128.988ZM905.887 141.43V138.668H928.582V141.43H905.887ZM908.512 145.422V142.879H925.82V149.223H911.957V150.727H926.477V153.352H908.539V146.789H922.375V145.422H908.512ZM911.82 133.227C911.807 134.443 913.584 134.922 917.234 134.922C920.912 134.922 922.676 134.443 922.676 133.227C922.676 132.119 920.912 131.531 917.234 131.531C913.584 131.531 911.807 132.119 911.82 133.227ZM944.66 129.672C948.461 129.645 951.223 131.818 951.223 134.949C951.223 138.053 948.461 140.254 944.66 140.227C940.873 140.254 938.111 138.053 938.125 134.949C938.111 131.818 940.873 129.645 944.66 129.672ZM936.594 141.758C941.01 141.744 947.258 141.662 952.562 140.855L952.781 143.426C950.73 143.836 948.625 144.096 946.547 144.26V152.777H943.074V144.465C940.887 144.561 938.822 144.574 937.031 144.602L936.594 141.758ZM941.488 134.949C941.475 136.508 942.801 137.41 944.66 137.383C946.574 137.41 947.914 136.508 947.914 134.949C947.914 133.363 946.574 132.447 944.66 132.461C942.801 132.447 941.475 133.363 941.488 134.949ZM954.066 153.516V128.66H957.512V153.516H954.066ZM980.48 128.66V136.289H983.844V139.133H980.48V147.227H976.98V128.66H980.48ZM960.738 134.02V131.258H966.398V128.605H969.871V131.258H975.504V134.02H960.738ZM961.941 139.707C961.941 136.822 964.498 134.895 968.121 134.895C971.73 134.895 974.246 136.822 974.246 139.707C974.246 142.578 971.73 144.465 968.121 144.465C964.498 144.465 961.941 142.578 961.941 139.707ZM964.348 153.078V145.805H967.82V150.289H981.383V153.078H964.348ZM965.359 139.707C965.346 141.074 966.453 141.812 968.121 141.812C969.803 141.812 970.938 141.074 970.938 139.707C970.938 138.326 969.803 137.561 968.121 137.547C966.453 137.561 965.346 138.326 965.359 139.707ZM1004.57 128.633V137.875H1008.23V140.719H1004.57V153.57H1001.07V128.633H1004.57ZM985.922 147.527V130.93H997.598V133.746H989.395V144.656C993.004 144.629 995.984 144.438 999.293 143.863L999.676 146.789C995.807 147.445 992.416 147.541 988.027 147.527H985.922ZM1021.99 130.656V132.543H1026.64V128.66H1030.11V146.762H1026.64V140.664H1021.99V142.77H1010.18V130.656H1021.99ZM1013.54 153.078V145.039H1017.07V150.289H1030.63V153.078H1013.54ZM1013.65 140.062H1018.57V133.418H1013.65V140.062ZM1021.99 137.902H1026.64V135.359H1021.99V137.902ZM1061.36 128.633V153.516H1058.08V128.633H1061.36ZM1039.49 145.887C1044.52 142.906 1046.73 139.283 1047.21 134.402H1040.86V131.586H1050.67C1050.67 133.965 1050.41 136.18 1049.81 138.23H1052.8V129.18H1056.06V152.422H1052.8V140.992H1048.73C1047.31 143.836 1045 146.297 1041.46 148.348L1039.49 145.887ZM1076.51 130.82V133.664H1068.69V144.711C1072.31 144.67 1074.93 144.506 1077.85 143.973L1078.21 146.789C1074.79 147.445 1071.78 147.582 1067.19 147.555H1065.16V130.82H1076.51ZM1075.28 140.09V137.246H1081.54V128.633H1085.02V153.57H1081.54V140.09H1075.28ZM1109.02 128.66V143.781H1105.52V128.66H1109.02ZM1089.47 132.926V130.109H1101.01V137.656H1092.92V139.898C1097.07 139.871 1100.01 139.721 1103.36 139.215L1103.8 142.004C1099.99 142.633 1096.62 142.742 1091.69 142.742H1089.5V135.059H1097.54V132.926H1089.47ZM1092.02 148.84C1092.02 145.859 1095.26 144.178 1100.57 144.191C1105.91 144.178 1109.17 145.859 1109.19 148.84C1109.17 151.793 1105.91 153.529 1100.57 153.516C1095.26 153.529 1092.02 151.793 1092.02 148.84ZM1095.49 148.84C1095.49 150.166 1097.24 150.809 1100.57 150.809C1103.92 150.809 1105.67 150.166 1105.69 148.84C1105.67 147.541 1103.92 146.885 1100.57 146.898C1097.24 146.885 1095.49 147.541 1095.49 148.84Z" fill="#B5D681"/>
<g clip-path="url(#clip2_2376_12507)">
<path d="M867.74 859.91H861.8V869.96H856V842H868.18C870.99 842 873.23 842.72 874.89 844.16C876.55 845.6 877.39 847.83 877.39 850.86C877.39 854.16 876.56 856.49 874.89 857.86C873.22 859.23 870.84 859.91 867.74 859.91ZM870.47 854.09C871.23 853.42 871.61 852.36 871.61 850.9C871.61 849.44 871.23 848.41 870.46 847.79C869.69 847.17 868.62 846.86 867.25 846.86H861.81V855.09H867.25C868.63 855.09 869.7 854.76 870.47 854.08V854.09Z" fill="#B5D681"/>
<path d="M897.22 864.21H886.92L884.99 869.96H878.88L888.86 842H895.46L905.36 869.96H899.02L897.22 864.21ZM895.59 859.39L892.1 848.39L888.5 859.39H895.59Z" fill="#B5D681"/>
<path d="M910.85 842H916.69V864.93H930.54V869.96H910.85V842Z" fill="#B5D681"/>
<path d="M936.52 842H942.36V864.93H956.21V869.96H936.52V842Z" fill="#B5D681"/>
<path d="M981.65 857.74H968.07V864.93H983.55V869.96H962.36V842H982.86V846.95H968.07V852.89H981.65V857.75V857.74Z" fill="#B5D681"/>
<path d="M1010.36 842V846.95H1002V869.96H996.12V846.95H987.72V842H1010.37H1010.36Z" fill="#B5D681"/>
<path d="M1035.17 857.74H1021.59V864.93H1037.07V869.96H1015.88V842H1036.38V846.95H1021.59V852.89H1035.17V857.75V857.74Z" fill="#B5D681"/>
<path d="M1063.03 857.74H1049.45V864.93H1064.93V869.96H1043.74V842H1064.24V846.95H1049.45V852.89H1063.03V857.75V857.74Z" fill="#B5D681"/>
</g>
</g>
<defs>
<clipPath id="clip0_2376_12507">
<rect width="1920" height="1000" fill="white"/>
</clipPath>
<clipPath id="clip1_2376_12507">
<rect width="1996.93" height="393.8" fill="white" transform="translate(-38 303)"/>
</clipPath>
<clipPath id="clip2_2376_12507">
<rect width="208.92" height="27.96" fill="white" transform="translate(856 842)"/>
</clipPath>
</defs>
</svg>
