<svg width="1920" height="1000" viewBox="0 0 1920 1000" fill="none" xmlns="http://www.w3.org/2000/svg">
<g clip-path="url(#clip0_2376_12520)">
<rect width="1920" height="1000" fill="#333533"/>
<g clip-path="url(#clip1_2376_12520)">
<path d="M1922.22 373.08C1922.22 373.08 1862.71 310.57 1792.26 395.79C1789.25 391.68 1786.07 387.53 1782.69 383.34C1782.69 383.34 1699.78 264.78 1572.48 315.71C1572.48 315.71 1534.59 330.53 1488.57 364.83C1458.85 333.71 1388.72 277.84 1294.05 315.71C1294.05 315.71 1256.16 330.53 1210.14 364.83C1180.42 333.71 1110.29 277.84 1015.62 315.71C1015.62 315.71 974.16 331.93 925.31 369.69C898.67 340.09 826.13 275.76 726.28 315.71C726.28 315.71 688.39 330.53 642.37 364.83C612.65 333.71 542.52 277.84 447.85 315.71C447.85 315.71 409.96 330.53 363.94 364.83C334.22 333.71 264.09 277.84 169.42 315.71C169.42 315.71 54.92 360.49 -17.73 474.51C-17.73 474.51 -72.83 559.32 -1.27003 626.72C-1.27003 626.72 58.24 689.23 128.69 604.01C131.7 608.12 134.88 612.27 138.26 616.46C138.26 616.46 221.17 735.02 348.47 684.09C348.47 684.09 386.36 669.27 432.38 634.97C462.1 666.09 532.23 721.96 626.9 684.09C626.9 684.09 664.79 669.27 710.81 634.97C740.53 666.09 810.66 721.96 905.33 684.09C905.33 684.09 946.79 667.87 995.64 630.11C1022.28 659.71 1094.82 724.04 1194.67 684.09C1194.67 684.09 1232.56 669.27 1278.58 634.97C1308.3 666.09 1378.43 721.96 1473.1 684.09C1473.1 684.09 1510.99 669.27 1557.01 634.97C1586.73 666.09 1656.86 721.96 1751.53 684.09C1751.53 684.09 1866.03 639.31 1938.68 525.29C1938.68 525.29 1993.78 440.48 1922.22 373.08Z" fill="#AE8ABD"/>
</g>
<path d="M698.484 129.727V131.477C698.498 133.295 698.498 135.633 697.992 138.75H701.191V141.539H678.414V138.75H694.465C694.902 136.152 694.984 134.129 694.998 132.488H681.203V129.727H698.484ZM680.82 147.199V144.465H698.566V153.543H695.066V147.199H680.82ZM725.309 140.965V143.781H702.613V140.965H712.184V138.859H705.512V129.234H708.957V131.504H718.938V129.234H722.41V138.859H715.684V140.965H725.309ZM705.129 148.238V145.477H722.547V153.516H719.074V148.238H705.129ZM708.957 136.125H718.938V134.074H708.957V136.125ZM748.195 128.66V143.973H744.887V137.848H742.945V143.699H739.691V128.988H742.945V135.031H744.887V128.66H748.195ZM726.676 133.773V131.012H731.078V128.77H734.551V131.012H738.898V133.773H726.676ZM727.441 138.914C727.428 136.303 729.711 134.566 732.828 134.566C735.986 134.566 738.256 136.303 738.27 138.914C738.256 141.471 735.986 143.248 732.828 143.262C729.711 143.248 727.428 141.471 727.441 138.914ZM728.207 150.617C731.434 149.688 732.883 147.445 732.883 145.258V144.738H736.355V145.258C736.328 147.076 737.148 148.949 739.104 150.193C741.086 148.881 741.961 146.926 741.988 145.258V144.738H745.461V145.258C745.434 147.568 746.828 149.783 750.137 150.617L748.523 153.215C746.117 152.477 744.531 151.027 743.656 149.195C742.863 151.027 741.428 152.641 739.172 153.461C736.861 152.654 735.398 151.137 734.592 149.318C733.703 151.068 732.131 152.477 729.848 153.215L728.207 150.617ZM730.559 138.914C730.545 140.076 731.461 140.746 732.828 140.746C734.182 140.746 735.111 140.076 735.125 138.914C735.111 137.697 734.182 137.055 732.828 137.055C731.475 137.055 730.545 137.697 730.559 138.914ZM763.863 130.355V133.145H755.988V140.637C759.611 140.609 762.154 140.473 765.012 139.926L765.34 142.715C762.031 143.303 759.064 143.439 754.512 143.453H752.516V130.355H763.863ZM755.441 153.133V145.258H758.941V150.344H772.586V153.133H755.441ZM762.414 137.902V135.141H768.512V128.66H771.984V146.762H768.512V137.902H762.414ZM802.637 128.66V142.988H799.164V140.555H793.559V137.766H799.164V135.387H793.818C792.26 139.324 788.719 142.045 783.25 143.535L781.883 140.773C787.598 139.283 790.414 136.535 790.906 133.117H783.223V130.328H794.707C794.707 131.135 794.652 131.914 794.529 132.652H799.164V128.66H802.637ZM785.848 148.32C785.834 145.244 789.238 143.303 794.352 143.289C799.396 143.303 802.814 145.244 802.828 148.32C802.814 151.438 799.396 153.406 794.352 153.406C789.238 153.406 785.834 151.438 785.848 148.32ZM789.32 148.32C789.32 149.865 791.193 150.645 794.352 150.645C797.441 150.645 799.314 149.865 799.328 148.32C799.314 146.789 797.441 145.996 794.352 146.023C791.193 145.996 789.32 146.789 789.32 148.32ZM826.836 128.633V143.672H823.363V138.777H820.137V135.934H823.363V128.633H826.836ZM805.918 133.582V130.793H811.551V128.414H814.996V130.793H820.574V133.582H805.918ZM807.285 138.859C807.285 136.262 809.787 134.402 813.273 134.402C816.773 134.402 819.234 136.262 819.234 138.859C819.234 141.58 816.76 143.357 813.273 143.371C809.787 143.357 807.285 141.58 807.285 138.859ZM810.102 153.242V144.738H826.836V153.242H810.102ZM810.648 138.859C810.621 140.117 811.646 140.787 813.273 140.801C814.859 140.787 815.898 140.117 815.898 138.859C815.898 137.684 814.859 137.014 813.273 137.027C811.646 137.014 810.621 137.684 810.648 138.859ZM813.602 150.453H823.418V147.473H813.602V150.453ZM841.41 128.988C847.139 128.988 850.447 130.492 850.461 133.227C850.447 136.002 847.139 137.492 841.41 137.492C835.668 137.492 832.332 136.002 832.332 133.227C832.332 130.492 835.668 128.988 841.41 128.988ZM830.062 141.43V138.668H852.758V141.43H830.062ZM832.688 145.422V142.879H849.996V149.223H836.133V150.727H850.652V153.352H832.715V146.789H846.551V145.422H832.688ZM835.996 133.227C835.982 134.443 837.76 134.922 841.41 134.922C845.088 134.922 846.852 134.443 846.852 133.227C846.852 132.119 845.088 131.531 841.41 131.531C837.76 131.531 835.982 132.119 835.996 133.227ZM881.223 130.793V133.145C881.209 136.262 881.209 139.762 880.211 145.039L876.711 144.684C877.668 139.98 877.709 136.48 877.723 133.555H863.066V130.793H881.223ZM860.715 150.48V147.637H868.836V139.078H872.309V147.637H883.41V150.48H860.715ZM907.664 142.469V145.285H902.332V153.516H898.777V145.285H893.691V153.516H890.109V145.285H884.887V142.469H907.664ZM887.184 135.086C887.17 131.654 890.861 129.467 896.207 129.453C901.553 129.467 905.285 131.654 905.285 135.086C905.285 138.436 901.553 140.568 896.207 140.555C890.861 140.568 887.17 138.436 887.184 135.086ZM890.766 135.086C890.752 136.836 892.871 137.807 896.207 137.82C899.57 137.807 901.676 136.836 901.676 135.086C901.676 133.254 899.57 132.256 896.207 132.242C892.871 132.256 890.752 133.254 890.766 135.086ZM917.18 130.301C921.131 130.287 924.057 132.83 924.07 136.398C924.057 139.98 921.131 142.51 917.18 142.523C913.256 142.51 910.248 139.98 910.262 136.398C910.248 132.83 913.256 130.287 917.18 130.301ZM909.223 145.641C913.666 145.654 919.818 145.6 925.137 144.848L925.41 147.363C919.887 148.443 913.98 148.484 909.633 148.484L909.223 145.641ZM913.734 136.398C913.721 138.367 915.211 139.502 917.18 139.488C919.162 139.502 920.666 138.367 920.68 136.398C920.666 134.457 919.162 133.309 917.18 133.309C915.211 133.309 913.721 134.457 913.734 136.398ZM926.559 153.57V128.633H930.031V153.57H926.559ZM947.723 132.953C947.723 135.729 949.09 138.422 952.398 139.734L950.512 142.414C948.406 141.566 946.943 140.049 946.055 138.176C945.152 140.309 943.58 142.1 941.27 143.07L939.41 140.363C942.924 138.859 944.332 135.77 944.332 132.953V130.082H947.723V132.953ZM943.949 147.609V144.82H961.148V153.516H957.676V147.609H943.949ZM952.508 143.59V129.043H955.762V134.703H957.84V128.66H961.148V143.727H957.84V137.547H955.762V143.59H952.508ZM975.312 129.891C980.562 129.904 984.678 132.748 984.691 137.055C984.678 141.402 980.562 144.232 975.312 144.219C970.049 144.232 965.961 141.402 965.961 137.055C965.961 132.748 970.049 129.904 975.312 129.891ZM963.965 150.48V147.664H986.742V150.48H963.965ZM969.352 137.055C969.338 139.762 971.854 141.375 975.312 141.375C978.744 141.375 981.232 139.762 981.246 137.055C981.232 134.389 978.744 132.707 975.312 132.734C971.854 132.707 969.338 134.389 969.352 137.055ZM1010.94 147.883V150.754H988.164V147.883H997.762V144.137H990.789V135.77H1004.87V133.035H990.762V130.246H1008.32V138.504H994.289V141.293H1008.89V144.137H1001.23V147.883H1010.94ZM1041.98 138.066V140.91H1038.45V153.461H1034.95V128.633H1038.45V138.066H1041.98ZM1019.61 147.391V131.012H1023.08V144.506C1026.27 144.451 1029.69 144.15 1033.28 143.426L1033.64 146.324C1029.47 147.172 1025.43 147.391 1021.77 147.391H1019.61ZM1055.79 130.684V133.527H1047.53V137.629H1055.43V140.363H1047.53V145.066C1051.08 145.025 1053.99 144.875 1057.32 144.355L1057.64 147.172C1053.84 147.746 1050.45 147.855 1046.11 147.855H1044V130.684H1055.79ZM1059.15 153.516V128.633H1062.65V138.066H1066.31V140.992H1062.65V153.516H1059.15ZM1088.68 128.633V153.516H1085.32V141.074H1082.99V152.312H1079.71V129.043H1082.99V138.258H1085.32V128.633H1088.68ZM1068.23 147.445V131.395H1071.73V144.396C1073.72 144.342 1075.92 144.164 1078.32 143.699L1078.67 146.707C1075.34 147.281 1072.49 147.459 1069.92 147.445H1068.23ZM1111.92 130.793V133.145C1111.91 136.262 1111.91 139.762 1110.91 145.039L1107.41 144.684C1108.37 139.98 1108.41 136.48 1108.42 133.555H1093.77V130.793H1111.92ZM1091.41 150.48V147.637H1099.54V139.078H1103.01V147.637H1114.11V150.48H1091.41ZM1133.28 144.137C1138.72 144.137 1142.14 145.859 1142.16 148.84C1142.14 151.779 1138.72 153.529 1133.28 153.516C1127.88 153.529 1124.4 151.779 1124.42 148.84C1124.4 145.859 1127.88 144.137 1133.28 144.137ZM1122.12 142.551V139.734H1130.6V135.387H1134.04V139.734H1144.71V142.551H1122.12ZM1124.66 132.488V129.754H1142.03V131.777C1142.04 133.76 1142.04 135.893 1141.32 138.449L1137.9 138.121C1138.46 135.865 1138.53 134.184 1138.55 132.488H1124.66ZM1127.89 148.84C1127.88 150.18 1129.85 150.863 1133.28 150.863C1136.71 150.863 1138.69 150.18 1138.69 148.84C1138.69 147.459 1136.71 146.721 1133.28 146.734C1129.85 146.721 1127.88 147.459 1127.89 148.84ZM1169.02 142.469V145.285H1163.68V153.516H1160.13V145.285H1155.04V153.516H1151.46V145.285H1146.24V142.469H1169.02ZM1148.54 135.086C1148.52 131.654 1152.21 129.467 1157.56 129.453C1162.9 129.467 1166.64 131.654 1166.64 135.086C1166.64 138.436 1162.9 140.568 1157.56 140.555C1152.21 140.568 1148.52 138.436 1148.54 135.086ZM1152.12 135.086C1152.1 136.836 1154.22 137.807 1157.56 137.82C1160.92 137.807 1163.03 136.836 1163.03 135.086C1163.03 133.254 1160.92 132.256 1157.56 132.242C1154.22 132.256 1152.1 133.254 1152.12 135.086ZM1190.1 128.633V138.367H1193.76V141.238H1190.1V153.516H1186.65V128.633H1190.1ZM1170.33 135.141V132.352H1175.96V129.016H1179.46V132.352H1184.96V135.141H1170.33ZM1171.34 142.469C1171.33 138.996 1174.03 136.521 1177.71 136.535C1181.33 136.521 1184.05 138.996 1184.05 142.469C1184.05 145.941 1181.33 148.389 1177.71 148.402C1174.03 148.389 1171.33 145.941 1171.34 142.469ZM1174.68 142.469C1174.68 144.396 1175.95 145.545 1177.71 145.531C1179.45 145.545 1180.72 144.396 1180.72 142.469C1180.72 140.555 1179.45 139.379 1177.71 139.352C1175.95 139.379 1174.68 140.555 1174.68 142.469ZM1202.65 134.895C1202.63 138.928 1203.76 143.084 1207.16 145.258L1205.27 147.965C1203.11 146.666 1201.76 144.506 1200.97 141.963C1200.08 144.779 1198.59 147.145 1196.33 148.512L1194.2 145.941C1197.89 143.658 1199.26 139.27 1199.26 135.059V130.766H1202.65V134.895ZM1204.54 139.871V137.027H1207.76V128.988H1211.02V152.367H1207.76V139.871H1204.54ZM1212.9 153.516V128.633H1216.24V153.516H1212.9ZM1241.64 147.746V150.617H1218.86V147.746H1223.95V141.648C1222.02 140.486 1220.86 138.723 1220.86 136.535C1220.86 132.502 1224.8 129.85 1230.21 129.836C1235.6 129.85 1239.58 132.502 1239.59 136.535C1239.58 138.682 1238.46 140.418 1236.58 141.58V147.746H1241.64ZM1224.3 136.535C1224.3 138.969 1226.64 140.473 1230.21 140.473C1233.72 140.473 1236.13 138.969 1236.14 136.535C1236.13 134.033 1233.72 132.584 1230.21 132.598C1226.64 132.584 1224.3 134.033 1224.3 136.535ZM1227.39 147.746H1233.05V142.906C1232.17 143.084 1231.21 143.18 1230.21 143.18C1229.21 143.18 1228.27 143.084 1227.39 142.92V147.746Z" fill="#AE8ABD"/>
<g clip-path="url(#clip2_2376_12520)">
<path d="M867.74 859.91H861.8V869.96H856V842H868.18C870.99 842 873.23 842.72 874.89 844.16C876.55 845.6 877.39 847.83 877.39 850.86C877.39 854.16 876.56 856.49 874.89 857.86C873.22 859.23 870.84 859.91 867.74 859.91ZM870.47 854.09C871.23 853.42 871.61 852.36 871.61 850.9C871.61 849.44 871.23 848.41 870.46 847.79C869.69 847.17 868.62 846.86 867.25 846.86H861.81V855.09H867.25C868.63 855.09 869.7 854.76 870.47 854.08V854.09Z" fill="#AE8ABD"/>
<path d="M897.22 864.21H886.92L884.99 869.96H878.88L888.86 842H895.46L905.36 869.96H899.02L897.22 864.21ZM895.59 859.39L892.1 848.39L888.5 859.39H895.59Z" fill="#AE8ABD"/>
<path d="M910.85 842H916.69V864.93H930.54V869.96H910.85V842Z" fill="#AE8ABD"/>
<path d="M936.52 842H942.36V864.93H956.21V869.96H936.52V842Z" fill="#AE8ABD"/>
<path d="M981.65 857.74H968.07V864.93H983.55V869.96H962.36V842H982.86V846.95H968.07V852.89H981.65V857.75V857.74Z" fill="#AE8ABD"/>
<path d="M1010.36 842V846.95H1002V869.96H996.12V846.95H987.72V842H1010.37H1010.36Z" fill="#AE8ABD"/>
<path d="M1035.17 857.74H1021.59V864.93H1037.07V869.96H1015.88V842H1036.38V846.95H1021.59V852.89H1035.17V857.75V857.74Z" fill="#AE8ABD"/>
<path d="M1063.03 857.74H1049.45V864.93H1064.93V869.96H1043.74V842H1064.24V846.95H1049.45V852.89H1063.03V857.75V857.74Z" fill="#AE8ABD"/>
</g>
</g>
<defs>
<clipPath id="clip0_2376_12520">
<rect width="1920" height="1000" fill="white"/>
</clipPath>
<clipPath id="clip1_2376_12520">
<rect width="1996.93" height="393.8" fill="white" transform="translate(-38 303)"/>
</clipPath>
<clipPath id="clip2_2376_12520">
<rect width="208.92" height="27.96" fill="white" transform="translate(856 842)"/>
</clipPath>
</defs>
</svg>
