<svg width="1920" height="1000" viewBox="0 0 1920 1000" fill="none" xmlns="http://www.w3.org/2000/svg">
<g clip-path="url(#clip0_2376_12466)">
<rect width="1920" height="1000" fill="#333533"/>
<g clip-path="url(#clip1_2376_12466)">
<path d="M1922.22 373.08C1922.22 373.08 1862.71 310.57 1792.26 395.79C1789.25 391.68 1786.07 387.53 1782.69 383.34C1782.69 383.34 1699.78 264.78 1572.48 315.71C1572.48 315.71 1534.59 330.53 1488.57 364.83C1458.85 333.71 1388.72 277.84 1294.05 315.71C1294.05 315.71 1256.16 330.53 1210.14 364.83C1180.42 333.71 1110.29 277.84 1015.62 315.71C1015.62 315.71 974.16 331.93 925.31 369.69C898.67 340.09 826.13 275.76 726.28 315.71C726.28 315.71 688.39 330.53 642.37 364.83C612.65 333.71 542.52 277.84 447.85 315.71C447.85 315.71 409.96 330.53 363.94 364.83C334.22 333.71 264.09 277.84 169.42 315.71C169.42 315.71 54.92 360.49 -17.73 474.51C-17.73 474.51 -72.83 559.32 -1.27003 626.72C-1.27003 626.72 58.24 689.23 128.69 604.01C131.7 608.12 134.88 612.27 138.26 616.46C138.26 616.46 221.17 735.02 348.47 684.09C348.47 684.09 386.36 669.27 432.38 634.97C462.1 666.09 532.23 721.96 626.9 684.09C626.9 684.09 664.79 669.27 710.81 634.97C740.53 666.09 810.66 721.96 905.33 684.09C905.33 684.09 946.79 667.87 995.64 630.11C1022.28 659.71 1094.82 724.04 1194.67 684.09C1194.67 684.09 1232.56 669.27 1278.58 634.97C1308.3 666.09 1378.43 721.96 1473.1 684.09C1473.1 684.09 1510.99 669.27 1557.01 634.97C1586.73 666.09 1656.86 721.96 1751.53 684.09C1751.53 684.09 1866.03 639.31 1938.68 525.29C1938.68 525.29 1993.78 440.48 1922.22 373.08Z" fill="#FF5E5E"/>
</g>
<path d="M719.785 130.164V132.816H717.762V137.834C718.746 137.766 719.73 137.684 720.66 137.574L720.797 140.09C715.93 140.855 710.324 140.91 706.086 140.91L705.703 138.176C706.564 138.176 707.467 138.176 708.41 138.162V132.816H706.359V130.164H719.785ZM709.066 145.094V142.387H725.582V149.031H712.539V150.59H726.293V153.352H709.121V146.57H722.109V145.094H709.066ZM711.773 138.121C712.635 138.094 713.523 138.066 714.398 138.025V132.816H711.773V138.121ZM722.082 141.402V128.633H725.582V133.527H728.945V136.398H725.582V141.402H722.082ZM739.555 131.121V140.555H734.086V144.793C736.52 144.766 738.803 144.643 741.387 144.164L741.688 147.008C738.42 147.609 735.631 147.664 732.5 147.691H730.75V137.793H736.191V133.883H730.723V131.121H739.555ZM740.594 139.953V137.137H743.137V129.098H746.391V152.312H743.137V139.953H740.594ZM748.25 153.516V128.633H751.559V153.516H748.25ZM774.527 141.484V144.246H756.918V130.465H774.336V133.281H760.473V135.906H773.762V138.641H760.473V141.484H774.527ZM754.238 150.617V147.773H777.016V150.617H754.238ZM800.012 128.633V153.516H796.676V128.633H800.012ZM778.656 139.406C778.656 133.842 780.775 130.396 784.07 130.41C787.064 130.396 789.115 133.199 789.498 137.848H791.535V128.988H794.816V152.367H791.535V140.609H789.525C789.225 145.49 787.133 148.457 784.07 148.457C780.775 148.457 778.656 144.998 778.656 139.406ZM781.883 139.406C781.855 143.234 782.676 145.121 784.07 145.094C785.506 145.121 786.354 143.234 786.34 139.406C786.354 135.592 785.506 133.691 784.07 133.691C782.676 133.691 781.855 135.592 781.883 139.406ZM812.043 134.266C812.057 138.941 813.943 143.494 818.086 145.285L815.953 148.074C813.191 146.734 811.332 144.246 810.293 141.17C809.227 144.438 807.312 147.117 804.469 148.512L802.281 145.668C806.547 143.74 808.488 138.941 808.516 134.266V130.547H812.043V134.266ZM815.297 139.27V136.453H820.191V128.633H823.637V153.57H820.191V139.27H815.297ZM842.477 135.414C842.463 139.201 844.486 143.576 848.574 145.477L846.633 148.211C843.857 146.939 841.889 144.396 840.768 141.416C839.66 144.697 837.609 147.486 834.738 148.84L832.715 146.078C836.857 144.15 838.949 139.529 838.977 135.414V133.883H833.699V131.039H847.48V133.883H842.477V135.414ZM849.422 153.516V128.633H852.922V138.121H856.586V141.047H852.922V153.516H849.422ZM878.324 128.66V146.816H874.824V128.66H878.324ZM857.406 140.664C861.576 139.27 863.395 135.811 863.395 132.434V130.027H867.031V132.434C867.004 135.729 868.768 138.941 872.855 140.254L871.078 142.988C868.262 142.059 866.334 140.199 865.227 137.834C864.105 140.377 862.123 142.428 859.211 143.426L857.406 140.664ZM861.645 153.078V145.066H865.172V150.289H878.98V153.078H861.645ZM889.754 130.301C893.705 130.287 896.631 132.83 896.645 136.398C896.631 139.98 893.705 142.51 889.754 142.523C885.83 142.51 882.822 139.98 882.836 136.398C882.822 132.83 885.83 130.287 889.754 130.301ZM881.797 145.641C886.24 145.654 892.393 145.6 897.711 144.848L897.984 147.363C892.461 148.443 886.555 148.484 882.207 148.484L881.797 145.641ZM886.309 136.398C886.295 138.367 887.785 139.502 889.754 139.488C891.736 139.502 893.24 138.367 893.254 136.398C893.24 134.457 891.736 133.309 889.754 133.309C887.785 133.309 886.295 134.457 886.309 136.398ZM899.133 153.57V128.633H902.605V153.57H899.133ZM933.312 128.66V142.988H929.84V140.555H924.234V137.766H929.84V135.387H924.494C922.936 139.324 919.395 142.045 913.926 143.535L912.559 140.773C918.273 139.283 921.09 136.535 921.582 133.117H913.898V130.328H925.383C925.383 131.135 925.328 131.914 925.205 132.652H929.84V128.66H933.312ZM916.523 148.32C916.51 145.244 919.914 143.303 925.027 143.289C930.072 143.303 933.49 145.244 933.504 148.32C933.49 151.438 930.072 153.406 925.027 153.406C919.914 153.406 916.51 151.438 916.523 148.32ZM919.996 148.32C919.996 149.865 921.869 150.645 925.027 150.645C928.117 150.645 929.99 149.865 930.004 148.32C929.99 146.789 928.117 145.996 925.027 146.023C921.869 145.996 919.996 146.789 919.996 148.32ZM948.488 130.082V137.848H940.969V140.5C944.66 140.5 946.875 140.377 949.391 139.898L949.719 142.688C946.807 143.207 944.195 143.275 939.383 143.289H937.523V135.25H944.988V132.816H937.469V130.082H948.488ZM940.367 147.883V145.094H957.512V153.516H954.039V147.883H940.367ZM949.91 140.145V137.383H954.039V134.867H949.91V132.105H954.039V128.66H957.512V143.973H954.039V140.145H949.91ZM974.738 131.121V133.117C974.711 135.455 974.711 138.518 974.055 142.66L970.609 142.387C971.184 138.777 971.238 136.111 971.266 133.91H961.832V131.121H974.738ZM960.52 145.641C961.914 145.641 963.473 145.627 965.086 145.586V138.258H968.531V145.477C970.979 145.381 973.453 145.203 975.75 144.902L975.969 147.5C970.842 148.361 965.209 148.457 960.848 148.43L960.52 145.641ZM976.926 153.516V128.633H980.453V138.641H983.844V141.539H980.453V153.516H976.926ZM1012.36 128.66V142.988H1008.89V140.555H1003.29V137.766H1008.89V135.387H1003.54C1001.99 139.324 998.445 142.045 992.977 143.535L991.609 140.773C997.324 139.283 1000.14 136.535 1000.63 133.117H992.949V130.328H1004.43C1004.43 131.135 1004.38 131.914 1004.26 132.652H1008.89V128.66H1012.36ZM995.574 148.32C995.561 145.244 998.965 143.303 1004.08 143.289C1009.12 143.303 1012.54 145.244 1012.55 148.32C1012.54 151.438 1009.12 153.406 1004.08 153.406C998.965 153.406 995.561 151.438 995.574 148.32ZM999.047 148.32C999.047 149.865 1000.92 150.645 1004.08 150.645C1007.17 150.645 1009.04 149.865 1009.05 148.32C1009.04 146.789 1007.17 145.996 1004.08 146.023C1000.92 145.996 999.047 146.789 999.047 148.32ZM1036.56 128.633V143.672H1033.09V138.777H1029.86V135.934H1033.09V128.633H1036.56ZM1015.64 133.582V130.793H1021.28V128.414H1024.72V130.793H1030.3V133.582H1015.64ZM1017.01 138.859C1017.01 136.262 1019.51 134.402 1023 134.402C1026.5 134.402 1028.96 136.262 1028.96 138.859C1028.96 141.58 1026.49 143.357 1023 143.371C1019.51 143.357 1017.01 141.58 1017.01 138.859ZM1019.83 153.242V144.738H1036.56V153.242H1019.83ZM1020.38 138.859C1020.35 140.117 1021.37 140.787 1023 140.801C1024.59 140.787 1025.62 140.117 1025.62 138.859C1025.62 137.684 1024.59 137.014 1023 137.027C1021.37 137.014 1020.35 137.684 1020.38 138.859ZM1023.33 150.453H1033.14V147.473H1023.33V150.453ZM1051.14 128.988C1056.87 128.988 1060.17 130.492 1060.19 133.227C1060.17 136.002 1056.87 137.492 1051.14 137.492C1045.39 137.492 1042.06 136.002 1042.06 133.227C1042.06 130.492 1045.39 128.988 1051.14 128.988ZM1039.79 141.43V138.668H1062.48V141.43H1039.79ZM1042.41 145.422V142.879H1059.72V149.223H1045.86V150.727H1060.38V153.352H1042.44V146.789H1056.28V145.422H1042.41ZM1045.72 133.227C1045.71 134.443 1047.49 134.922 1051.14 134.922C1054.81 134.922 1056.58 134.443 1056.58 133.227C1056.58 132.119 1054.81 131.531 1051.14 131.531C1047.49 131.531 1045.71 132.119 1045.72 133.227ZM1093.22 147.746V150.535H1070.44V147.746H1079.96V142.113H1083.43V147.746H1093.22ZM1070.99 140.008C1076.62 139.133 1079.79 135.346 1079.82 131.832V130.055H1083.54V131.832C1083.53 135.387 1086.74 139.133 1092.43 140.008L1090.95 142.906C1086.57 142.113 1083.32 139.775 1081.68 136.672C1080.05 139.762 1076.81 142.127 1072.46 142.906L1070.99 140.008ZM1116.11 128.633V153.516H1112.74V140.855H1110.47V152.422H1107.22V129.289H1110.47V138.066H1112.74V128.633H1116.11ZM1094.34 145.996C1099.41 143.016 1101.6 139.365 1102.06 134.484H1095.6V131.695H1105.47C1105.46 138.641 1103.38 144.328 1096.36 148.402L1094.34 145.996ZM1130.84 132.434V135.195H1118.81V132.434H1123.13V129.316H1126.58V132.434H1130.84ZM1119.39 142.223C1119.39 138.764 1121.71 136.33 1124.88 136.316C1128.07 136.33 1130.34 138.764 1130.35 142.223C1130.34 145.695 1128.07 148.156 1124.88 148.156C1121.71 148.156 1119.39 145.695 1119.39 142.223ZM1122.45 142.223C1122.45 144.123 1123.43 145.203 1124.88 145.203C1126.28 145.203 1127.28 144.123 1127.29 142.223C1127.28 140.35 1126.28 139.215 1124.88 139.215C1123.43 139.215 1122.45 140.35 1122.45 142.223ZM1131.77 152.449V129.125H1135.03V138.75H1137.05V128.633H1140.36V153.516H1137.05V141.539H1135.03V152.449H1131.77ZM1165.73 142.359V145.148H1156.05V153.516H1152.61V145.148H1143.04V142.359H1165.73ZM1144.16 138.176C1149.19 137.561 1151.98 135.127 1152.35 132.68H1145.09V129.945H1163.71V132.68H1156.45C1156.81 135.127 1159.55 137.561 1164.67 138.176L1163.41 140.91C1159.04 140.322 1155.9 138.463 1154.4 135.906C1152.88 138.463 1149.78 140.322 1145.45 140.91L1144.16 138.176ZM1175.22 134.895C1175.21 138.928 1176.33 143.084 1179.73 145.258L1177.85 147.965C1175.69 146.666 1174.33 144.506 1173.54 141.963C1172.65 144.779 1171.16 147.145 1168.91 148.512L1166.77 145.941C1170.46 143.658 1171.83 139.27 1171.83 135.059V130.766H1175.22V134.895ZM1177.11 139.871V137.027H1180.34V128.988H1183.59V152.367H1180.34V139.871H1177.11ZM1185.48 153.516V128.633H1188.81V153.516H1185.48ZM1214.21 147.746V150.617H1191.44V147.746H1196.52V141.648C1194.6 140.486 1193.43 138.723 1193.43 136.535C1193.43 132.502 1197.37 129.85 1202.79 129.836C1208.17 129.85 1212.15 132.502 1212.16 136.535C1212.15 138.682 1211.03 140.418 1209.16 141.58V147.746H1214.21ZM1196.88 136.535C1196.88 138.969 1199.22 140.473 1202.79 140.473C1206.3 140.473 1208.71 138.969 1208.72 136.535C1208.71 134.033 1206.3 132.584 1202.79 132.598C1199.22 132.584 1196.88 134.033 1196.88 136.535ZM1199.97 147.746H1205.63V142.906C1204.74 143.084 1203.78 143.18 1202.79 143.18C1201.79 143.18 1200.84 143.084 1199.97 142.92V147.746Z" fill="#FF5E5E"/>
<g clip-path="url(#clip2_2376_12466)">
<path d="M867.74 859.91H861.8V869.96H856V842H868.18C870.99 842 873.23 842.72 874.89 844.16C876.55 845.6 877.39 847.83 877.39 850.86C877.39 854.16 876.56 856.49 874.89 857.86C873.22 859.23 870.84 859.91 867.74 859.91ZM870.47 854.09C871.23 853.42 871.61 852.36 871.61 850.9C871.61 849.44 871.23 848.41 870.46 847.79C869.69 847.17 868.62 846.86 867.25 846.86H861.81V855.09H867.25C868.63 855.09 869.7 854.76 870.47 854.08V854.09Z" fill="#FF5E5E"/>
<path d="M897.22 864.21H886.92L884.99 869.96H878.88L888.86 842H895.46L905.36 869.96H899.02L897.22 864.21ZM895.59 859.39L892.1 848.39L888.5 859.39H895.59Z" fill="#FF5E5E"/>
<path d="M910.85 842H916.69V864.93H930.54V869.96H910.85V842Z" fill="#FF5E5E"/>
<path d="M936.52 842H942.36V864.93H956.21V869.96H936.52V842Z" fill="#FF5E5E"/>
<path d="M981.65 857.74H968.07V864.93H983.55V869.96H962.36V842H982.86V846.95H968.07V852.89H981.65V857.75V857.74Z" fill="#FF5E5E"/>
<path d="M1010.36 842V846.95H1002V869.96H996.12V846.95H987.72V842H1010.37H1010.36Z" fill="#FF5E5E"/>
<path d="M1035.17 857.74H1021.59V864.93H1037.07V869.96H1015.88V842H1036.38V846.95H1021.59V852.89H1035.17V857.75V857.74Z" fill="#FF5E5E"/>
<path d="M1063.03 857.74H1049.45V864.93H1064.93V869.96H1043.74V842H1064.24V846.95H1049.45V852.89H1063.03V857.75V857.74Z" fill="#FF5E5E"/>
</g>
</g>
<defs>
<clipPath id="clip0_2376_12466">
<rect width="1920" height="1000" fill="white"/>
</clipPath>
<clipPath id="clip1_2376_12466">
<rect width="1996.93" height="393.8" fill="white" transform="translate(-38 303)"/>
</clipPath>
<clipPath id="clip2_2376_12466">
<rect width="208.92" height="27.96" fill="white" transform="translate(856 842)"/>
</clipPath>
</defs>
</svg>
