<svg width="1920" height="1000" viewBox="0 0 1920 1000" fill="none" xmlns="http://www.w3.org/2000/svg">
<g clip-path="url(#clip0_2376_12481)">
<rect width="1920" height="1000" fill="#333533"/>
<g clip-path="url(#clip1_2376_12481)">
<path d="M1922.22 373.08C1922.22 373.08 1862.71 310.57 1792.26 395.79C1789.25 391.68 1786.07 387.53 1782.69 383.34C1782.69 383.34 1699.78 264.78 1572.48 315.71C1572.48 315.71 1534.59 330.53 1488.57 364.83C1458.85 333.71 1388.72 277.84 1294.05 315.71C1294.05 315.71 1256.16 330.53 1210.14 364.83C1180.42 333.71 1110.29 277.84 1015.62 315.71C1015.62 315.71 974.16 331.93 925.31 369.69C898.67 340.09 826.13 275.76 726.28 315.71C726.28 315.71 688.39 330.53 642.37 364.83C612.65 333.71 542.52 277.84 447.85 315.71C447.85 315.71 409.96 330.53 363.94 364.83C334.22 333.71 264.09 277.84 169.42 315.71C169.42 315.71 54.92 360.49 -17.73 474.51C-17.73 474.51 -72.83 559.32 -1.27003 626.72C-1.27003 626.72 58.24 689.23 128.69 604.01C131.7 608.12 134.88 612.27 138.26 616.46C138.26 616.46 221.17 735.02 348.47 684.09C348.47 684.09 386.36 669.27 432.38 634.97C462.1 666.09 532.23 721.96 626.9 684.09C626.9 684.09 664.79 669.27 710.81 634.97C740.53 666.09 810.66 721.96 905.33 684.09C905.33 684.09 946.79 667.87 995.64 630.11C1022.28 659.71 1094.82 724.04 1194.67 684.09C1194.67 684.09 1232.56 669.27 1278.58 634.97C1308.3 666.09 1378.43 721.96 1473.1 684.09C1473.1 684.09 1510.99 669.27 1557.01 634.97C1586.73 666.09 1656.86 721.96 1751.53 684.09C1751.53 684.09 1866.03 639.31 1938.68 525.29C1938.68 525.29 1993.78 440.48 1922.22 373.08Z" fill="#FFE66B"/>
</g>
<path d="M856.066 131.828V134.754H833.289V131.828H842.859V127.344H835.176V124.609H838.512V117.5H835.066V114.711H854.152V117.5H850.652V124.609H854.043V127.344H846.332V131.828H856.066ZM842.012 124.609H847.207V117.5H842.012V124.609ZM877.777 125.484V128.246H860.168V114.465H877.586V117.281H863.723V119.906H877.012V122.641H863.723V125.484H877.777ZM857.488 134.617V131.773H880.266V134.617H857.488ZM902.359 113.234V115.805H899.105V119.086H902.195V121.684H894.758V123.242H904.383V125.949H881.688V123.242H891.258V121.684H883.848V119.086H886.91V115.805H883.684V113.234H902.359ZM884.312 129.75V127.262H901.621V133.359H887.758V134.781H902.277V137.352H884.34V131.008H898.176V129.75H884.312ZM890.41 119.086H895.605V115.805H890.41V119.086ZM926.75 112.633V137.57H923.277V112.633H926.75ZM907.199 117.527V114.711H919.039V124.309H910.836V128.875C914.637 128.848 917.85 128.656 921.5 128.055L921.801 130.871C917.713 131.596 914.008 131.746 909.469 131.746H907.227V121.547H915.484V117.527H907.199ZM941.434 113.918C946.779 113.918 950.799 116.625 950.812 120.727C950.799 124.486 947.627 127.002 943.156 127.494V131.746H952.863V134.617H930.086V131.746H939.684V127.494C935.24 126.988 932.082 124.473 932.082 120.727C932.082 116.625 936.088 113.918 941.434 113.918ZM935.527 120.727C935.527 123.352 937.947 124.814 941.434 124.828C944.934 124.814 947.354 123.352 947.367 120.727C947.354 118.238 944.934 116.693 941.434 116.707C937.947 116.693 935.527 118.238 935.527 120.727ZM977.035 123.789V126.387H954.258V123.789H977.035ZM956.855 130.023V127.617H974.301V133.496H960.355V134.918H975.039V137.297H956.883V131.281H970.855V130.023H956.855ZM957.047 115.449V113.07H974.273V118.922H960.574V120.262H974.711V122.613H957.102V116.707H970.773V115.449H957.047ZM996.148 128.137C1001.59 128.137 1005.01 129.859 1005.04 132.84C1005.01 135.779 1001.59 137.529 996.148 137.516C990.748 137.529 987.275 135.779 987.289 132.84C987.275 129.859 990.748 128.137 996.148 128.137ZM984.992 126.551V123.734H993.469V119.387H996.914V123.734H1007.58V126.551H984.992ZM987.535 116.488V113.754H1004.9V115.777C1004.91 117.76 1004.91 119.893 1004.19 122.449L1000.77 122.121C1001.33 119.865 1001.4 118.184 1001.43 116.488H987.535ZM990.762 132.84C990.748 134.18 992.717 134.863 996.148 134.863C999.58 134.863 1001.56 134.18 1001.56 132.84C1001.56 131.459 999.58 130.721 996.148 130.734C992.717 130.721 990.748 131.459 990.762 132.84ZM1030.6 112.633V137.516H1027.24V124.855H1024.97V136.422H1021.71V113.289H1024.97V122.066H1027.24V112.633H1030.6ZM1008.84 129.996C1013.91 127.016 1016.1 123.365 1016.56 118.484H1010.09V115.695H1019.96C1019.95 122.641 1017.87 128.328 1010.86 132.402L1008.84 129.996ZM1052.97 112.633V122.367H1056.63V125.238H1052.97V137.516H1049.52V112.633H1052.97ZM1033.2 119.141V116.352H1038.83V113.016H1042.33V116.352H1047.83V119.141H1033.2ZM1034.21 126.469C1034.2 122.996 1036.9 120.521 1040.58 120.535C1044.21 120.521 1046.93 122.996 1046.93 126.469C1046.93 129.941 1044.21 132.389 1040.58 132.402C1036.9 132.389 1034.2 129.941 1034.21 126.469ZM1037.55 126.469C1037.55 128.396 1038.82 129.545 1040.58 129.531C1042.32 129.545 1043.59 128.396 1043.59 126.469C1043.59 124.555 1042.32 123.379 1040.58 123.352C1038.82 123.379 1037.55 124.555 1037.55 126.469ZM1078.04 114.793V117.145C1078.03 120.262 1078.03 123.762 1077.03 129.039L1073.53 128.684C1074.49 123.98 1074.53 120.48 1074.54 117.555H1059.89V114.793H1078.04ZM1057.54 134.48V131.637H1065.66V123.078H1069.13V131.637H1080.23V134.48H1057.54ZM777.098 157.633V166.875H780.762V169.719H777.098V182.57H773.598V157.633H777.098ZM758.449 176.527V159.93H770.125V162.746H761.922V173.656C765.531 173.629 768.512 173.438 771.82 172.863L772.203 175.789C768.334 176.445 764.943 176.541 760.555 176.527H758.449ZM804.633 160.723V163.566H801.406V166.137H804.633V169.008H801.406V172.18H797.906V157.633H801.406V160.723H804.633ZM781.828 165.016C781.814 161.475 784.768 158.986 788.664 159C792.52 158.986 795.445 161.475 795.445 165.016C795.445 168.529 792.52 171.045 788.664 171.031C784.768 171.045 781.814 168.529 781.828 165.016ZM784.727 177.621C784.713 174.518 788.049 172.686 793.258 172.672C798.371 172.686 801.639 174.518 801.652 177.621C801.639 180.684 798.371 182.529 793.258 182.516C788.049 182.529 784.713 180.684 784.727 177.621ZM785.273 165.016C785.246 166.957 786.709 168.092 788.664 168.105C790.578 168.092 792.041 166.957 792.055 165.016C792.041 163.102 790.578 161.912 788.664 161.926C786.709 161.912 785.246 163.102 785.273 165.016ZM788.227 177.621C788.199 179.084 789.99 179.754 793.258 179.754C796.484 179.754 798.207 179.084 798.207 177.621C798.207 176.172 796.484 175.447 793.258 175.434C789.99 175.447 788.199 176.172 788.227 177.621ZM825.605 157.66V165.289H828.969V168.133H825.605V176.227H822.105V157.66H825.605ZM805.863 163.02V160.258H811.523V157.605H814.996V160.258H820.629V163.02H805.863ZM807.066 168.707C807.066 165.822 809.623 163.895 813.246 163.895C816.855 163.895 819.371 165.822 819.371 168.707C819.371 171.578 816.855 173.465 813.246 173.465C809.623 173.465 807.066 171.578 807.066 168.707ZM809.473 182.078V174.805H812.945V179.289H826.508V182.078H809.473ZM810.484 168.707C810.471 170.074 811.578 170.812 813.246 170.812C814.928 170.812 816.062 170.074 816.062 168.707C816.062 167.326 814.928 166.561 813.246 166.547C811.578 166.561 810.471 167.326 810.484 168.707ZM857.352 157.633V172.617H853.852V157.633H857.352ZM836.625 169.527C840.74 168.201 842.641 164.975 842.668 161.871H837.555V159.082H851.227V161.871H846.223C846.236 164.797 848.096 167.832 852.156 169.062L850.379 171.77C847.59 170.895 845.635 169.104 844.514 166.848C843.379 169.309 841.355 171.264 838.43 172.234L836.625 169.527ZM840.234 176.5V173.711H857.352V182.516H853.852V176.5H840.234ZM867.66 158.699C870.832 158.672 873.361 160.49 874.045 163.156H878.215V157.633H881.688V171.004H878.215V165.945H874.059C873.416 168.68 870.859 170.539 867.66 170.539C863.832 170.539 861.016 168.051 861.043 164.578C861.016 161.174 863.832 158.672 867.66 158.699ZM864.352 164.578C864.338 166.438 865.705 167.613 867.66 167.613C869.547 167.613 870.9 166.438 870.914 164.578C870.9 162.719 869.547 161.584 867.66 161.598C865.705 161.584 864.338 162.719 864.352 164.578ZM865.09 182.242V172.098H868.535V174.504H878.215V172.098H881.688V182.242H865.09ZM868.535 179.426H878.215V177.184H868.535V179.426ZM904.984 158.781V160.941C904.998 163.02 904.998 165.262 904.465 168.188H907.691V170.949H898.176V176.254H894.703V170.949H884.914V168.188H900.924C901.443 165.535 901.498 163.484 901.512 161.57H887.703V158.781H904.984ZM887.566 182.078V174.012H891.039V179.289H905.367V182.078H887.566ZM917.18 159.301C921.131 159.287 924.057 161.83 924.07 165.398C924.057 168.98 921.131 171.51 917.18 171.523C913.256 171.51 910.248 168.98 910.262 165.398C910.248 161.83 913.256 159.287 917.18 159.301ZM909.223 174.641C913.666 174.654 919.818 174.6 925.137 173.848L925.41 176.363C919.887 177.443 913.98 177.484 909.633 177.484L909.223 174.641ZM913.734 165.398C913.721 167.367 915.211 168.502 917.18 168.488C919.162 168.502 920.666 167.367 920.68 165.398C920.666 163.457 919.162 162.309 917.18 162.309C915.211 162.309 913.721 163.457 913.734 165.398ZM926.559 182.57V157.633H930.031V182.57H926.559ZM948.926 163.266C948.912 167.723 950.812 172.221 954.805 174.148L952.699 176.938C950.033 175.611 948.229 173.15 947.203 170.156C946.109 173.369 944.195 176.008 941.379 177.402L939.219 174.586C943.443 172.645 945.426 167.887 945.426 163.266V159.547H948.926V163.266ZM955.898 182.516V157.633H959.398V167.23H963.062V170.184H959.398V182.516H955.898ZM983.707 157.66V163.539H987.07V166.438H983.707V172.426H980.207V157.66H983.707ZM964.84 161.652V158.863H976.27V166.438H968.34V168.68C972.441 168.652 975.23 168.529 978.402 167.969L978.785 170.703C975.217 171.4 972.018 171.523 966.973 171.523H964.867V163.812H972.879V161.652H964.84ZM967.41 182.242V173.465H983.707V182.242H967.41ZM970.828 179.453H980.289V176.199H970.828V179.453ZM1010.91 167.34V170.074H988.164V167.34H1010.91ZM990.789 174.176V171.551H1008.1V178.059H994.234V179.59H1008.75V182.297H990.816V175.57H1004.65V174.176H990.789ZM991.008 165.973V158.125H1008.02V160.914H994.48V163.238H1008.21V165.973H991.008ZM1026.36 160.121V162.117C1026.34 164.455 1026.34 167.518 1025.68 171.66L1022.23 171.387C1022.81 167.777 1022.86 165.111 1022.89 162.91H1013.46V160.121H1026.36ZM1012.14 174.641C1013.54 174.641 1015.1 174.627 1016.71 174.586V167.258H1020.16V174.477C1022.6 174.381 1025.08 174.203 1027.38 173.902L1027.59 176.5C1022.47 177.361 1016.83 177.457 1012.47 177.43L1012.14 174.641ZM1028.55 182.516V157.633H1032.08V167.641H1035.47V170.539H1032.08V182.516H1028.55ZM1065.79 176.746V179.535H1043.02V176.746H1052.53V171.113H1056V176.746H1065.79ZM1043.56 169.008C1049.2 168.133 1052.37 164.346 1052.39 160.832V159.055H1056.11V160.832C1056.1 164.387 1059.31 168.133 1065 169.008L1063.52 171.906C1059.15 171.113 1055.89 168.775 1054.25 165.672C1052.63 168.762 1049.39 171.127 1045.04 171.906L1043.56 169.008ZM1089.91 170.457V173.191H1067.16V170.457H1076.79V168.926H1070V158.234H1087.26V160.914H1073.5V162.309H1086.68V164.824H1073.5V166.246H1087.48V168.926H1080.29V170.457H1089.91ZM1069.81 178.414C1069.81 175.789 1072.96 174.312 1078.54 174.34C1084.02 174.312 1087.18 175.789 1087.2 178.414C1087.18 181.094 1084.02 182.529 1078.54 182.516C1072.96 182.529 1069.81 181.094 1069.81 178.414ZM1073.31 178.414C1073.29 179.48 1074.95 179.945 1078.54 179.945C1082.04 179.945 1083.69 179.48 1083.7 178.414C1083.69 177.375 1082.04 176.896 1078.54 176.91C1074.95 176.896 1073.29 177.375 1073.31 178.414ZM1111.05 157.633V167.367H1114.71V170.238H1111.05V182.516H1107.6V157.633H1111.05ZM1091.28 164.141V161.352H1096.91V158.016H1100.41V161.352H1105.91V164.141H1091.28ZM1092.29 171.469C1092.28 167.996 1094.98 165.521 1098.66 165.535C1102.28 165.521 1105 167.996 1105 171.469C1105 174.941 1102.28 177.389 1098.66 177.402C1094.98 177.389 1092.28 174.941 1092.29 171.469ZM1095.62 171.469C1095.62 173.396 1096.9 174.545 1098.66 174.531C1100.4 174.545 1101.67 173.396 1101.67 171.469C1101.67 169.555 1100.4 168.379 1098.66 168.352C1096.9 168.379 1095.62 169.555 1095.62 171.469ZM1123.6 163.895C1123.58 167.928 1124.71 172.084 1128.11 174.258L1126.22 176.965C1124.06 175.666 1122.71 173.506 1121.92 170.963C1121.03 173.779 1119.54 176.145 1117.28 177.512L1115.15 174.941C1118.84 172.658 1120.21 168.27 1120.21 164.059V159.766H1123.6V163.895ZM1125.48 168.871V166.027H1128.71V157.988H1131.96V181.367H1128.71V168.871H1125.48ZM1133.85 182.516V157.633H1137.19V182.516H1133.85ZM1162.59 176.746V179.617H1139.81V176.746H1144.9V170.648C1142.97 169.486 1141.81 167.723 1141.81 165.535C1141.81 161.502 1145.75 158.85 1151.16 158.836C1156.55 158.85 1160.53 161.502 1160.54 165.535C1160.53 167.682 1159.4 169.418 1157.53 170.58V176.746H1162.59ZM1145.25 165.535C1145.25 167.969 1147.59 169.473 1151.16 169.473C1154.67 169.473 1157.08 167.969 1157.09 165.535C1157.08 163.033 1154.67 161.584 1151.16 161.598C1147.59 161.584 1145.25 163.033 1145.25 165.535ZM1148.34 176.746H1154V171.906C1153.12 172.084 1152.16 172.18 1151.16 172.18C1150.16 172.18 1149.22 172.084 1148.34 171.92V176.746Z" fill="#FFE66B"/>
<g clip-path="url(#clip2_2376_12481)">
<path d="M867.74 859.91H861.8V869.96H856V842H868.18C870.99 842 873.23 842.72 874.89 844.16C876.55 845.6 877.39 847.83 877.39 850.86C877.39 854.16 876.56 856.49 874.89 857.86C873.22 859.23 870.84 859.91 867.74 859.91ZM870.47 854.09C871.23 853.42 871.61 852.36 871.61 850.9C871.61 849.44 871.23 848.41 870.46 847.79C869.69 847.17 868.62 846.86 867.25 846.86H861.81V855.09H867.25C868.63 855.09 869.7 854.76 870.47 854.08V854.09Z" fill="#FFE66B"/>
<path d="M897.22 864.21H886.92L884.99 869.96H878.88L888.86 842H895.46L905.36 869.96H899.02L897.22 864.21ZM895.59 859.39L892.1 848.39L888.5 859.39H895.59Z" fill="#FFE66B"/>
<path d="M910.85 842H916.69V864.93H930.54V869.96H910.85V842Z" fill="#FFE66B"/>
<path d="M936.52 842H942.36V864.93H956.21V869.96H936.52V842Z" fill="#FFE66B"/>
<path d="M981.65 857.74H968.07V864.93H983.55V869.96H962.36V842H982.86V846.95H968.07V852.89H981.65V857.75V857.74Z" fill="#FFE66B"/>
<path d="M1010.36 842V846.95H1002V869.96H996.12V846.95H987.72V842H1010.37H1010.36Z" fill="#FFE66B"/>
<path d="M1035.17 857.74H1021.59V864.93H1037.07V869.96H1015.88V842H1036.38V846.95H1021.59V852.89H1035.17V857.75V857.74Z" fill="#FFE66B"/>
<path d="M1063.03 857.74H1049.45V864.93H1064.93V869.96H1043.74V842H1064.24V846.95H1049.45V852.89H1063.03V857.75V857.74Z" fill="#FFE66B"/>
</g>
</g>
<defs>
<clipPath id="clip0_2376_12481">
<rect width="1920" height="1000" fill="white"/>
</clipPath>
<clipPath id="clip1_2376_12481">
<rect width="1996.93" height="393.8" fill="white" transform="translate(-38 303)"/>
</clipPath>
<clipPath id="clip2_2376_12481">
<rect width="208.92" height="27.96" fill="white" transform="translate(856 842)"/>
</clipPath>
</defs>
</svg>
