<svg xmlns="http://www.w3.org/2000/svg" width="1920" height="394" viewBox="0 0 1920 394" fill="none">
  <path d="M1922.22 70.0802C1922.22 70.0802 1862.71 7.57022 1792.26 92.7902C1789.25 88.6802 1786.07 84.5302 1782.69 80.3402C1782.69 80.3402 1699.78 -38.2198 1572.48 12.7102C1572.48 12.7102 1534.59 27.5302 1488.57 61.8302C1458.85 30.7102 1388.72 -25.1598 1294.05 12.7102C1294.05 12.7102 1256.16 27.5302 1210.14 61.8302C1180.42 30.7102 1110.29 -25.1598 1015.62 12.7102C1015.62 12.7102 974.16 28.9302 925.31 66.6902C898.67 37.0902 826.13 -27.2398 726.28 12.7102C726.28 12.7102 688.39 27.5302 642.37 61.8302C612.65 30.7102 542.52 -25.1598 447.85 12.7102C447.85 12.7102 409.96 27.5302 363.94 61.8302C334.22 30.7102 264.09 -25.1598 169.42 12.7102C169.42 12.7102 54.92 57.4902 -17.73 171.51C-17.73 171.51 -72.83 256.32 -1.27003 323.72C-1.27003 323.72 58.24 386.23 128.69 301.01C131.7 305.12 134.88 309.27 138.26 313.46C138.26 313.46 221.17 432.02 348.47 381.09C348.47 381.09 386.36 366.27 432.38 331.97C462.1 363.09 532.23 418.96 626.9 381.09C626.9 381.09 664.79 366.27 710.81 331.97C740.53 363.09 810.66 418.96 905.33 381.09C905.33 381.09 946.79 364.87 995.64 327.11C1022.28 356.71 1094.82 421.04 1194.67 381.09C1194.67 381.09 1232.56 366.27 1278.58 331.97C1308.3 363.09 1378.43 418.96 1473.1 381.09C1473.1 381.09 1510.99 366.27 1557.01 331.97C1586.73 363.09 1656.86 418.96 1751.53 381.09C1751.53 381.09 1866.03 336.31 1938.68 222.29C1938.68 222.29 1993.78 137.48 1922.22 70.0802Z" fill="#FF5E5E"/>
</svg>