<svg xmlns="http://www.w3.org/2000/svg" width="117" height="150" viewBox="0 0 117 150" fill="none">
  <g clip-path="url(#clip0_361_697)">
    <path d="M61.2879 107.677C69.3708 148.3 41.9942 149.76 41.9942 149.76C13.148 153.093 4.87976 120.595 4.87976 120.595C-6.51308 77.2615 5.61456 38.5108 5.61456 38.5108C18.8444 -4.82245 61.2879 0.176677 61.2879 0.176677C116.041 2.25965 116.961 53.9285 116.961 53.9285C118.798 114.969 61.2879 107.68 61.2879 107.68V107.677ZM86.1654 29.0192C86.5328 34.8515 89.4721 36.7281 93.5135 36.7281C97.555 36.7281 100.68 33.8119 100.68 29.0192C100.68 24.6431 98.1077 20.2708 93.5135 20.2708C89.2867 20.2708 85.798 24.6469 86.1654 29.0192ZM93.4374 54.8818C93.8445 61.3296 97.0916 63.4013 101.56 63.4013C106.028 63.4013 109.481 60.1774 109.481 54.8818C109.481 50.0441 106.637 45.2101 101.56 45.2101C96.8896 45.2101 93.0303 50.0478 93.4374 54.8818ZM81.1442 82.9099C81.6407 90.7689 85.5994 93.2947 91.0476 93.2947C96.4958 93.2947 100.703 89.3652 100.703 82.9099C100.703 77.0138 97.2372 71.1215 91.0476 71.1215C85.3545 71.1215 80.6511 77.0176 81.1442 82.9099Z" fill="white"/>
  </g>
  <defs>
    <clipPath id="clip0_361_697">
      <rect width="117" height="150" fill="white"/>
    </clipPath>
  </defs>
</svg>