<svg width="100" height="33" viewBox="0 0 100 33" fill="none" xmlns="http://www.w3.org/2000/svg">
<g clip-path="url(#clip0_440_11471)">
<path d="M96.8852 20.1461L99.6594 21.9955C98.759 23.3217 96.6055 25.5971 92.8823 25.5971C88.2588 25.5971 84.8157 22.0199 84.8157 17.4693C84.8157 12.627 88.2954 9.3418 92.493 9.3418C96.7149 9.3418 98.7832 12.6998 99.4526 14.5127L99.8176 15.4375L88.9403 19.9393C89.7676 21.5697 91.0575 22.3971 92.8823 22.3971C94.7075 22.3971 95.9727 21.4967 96.8852 20.1461ZM88.3563 17.2141L95.62 14.1965C95.2184 13.1867 94.0262 12.4689 92.6024 12.4689C90.7897 12.4689 88.2711 14.075 88.3563 17.2141Z" fill="#333533"/>
<path d="M79.5718 1.05664H83.0757V24.8555H79.5718V1.05664Z" fill="#333533"/>
<path d="M74.0478 9.9748H77.4302V24.4293C77.4302 30.4275 73.8896 32.8975 69.7041 32.8975C65.7621 32.8975 63.3896 30.2451 62.5013 28.0916L65.6039 26.8018C66.1634 28.1279 67.514 29.6977 69.7041 29.6977C72.3929 29.6977 74.0478 28.0307 74.0478 24.916V23.748H73.9261C73.123 24.7213 71.59 25.5973 69.6433 25.5973C65.5794 25.5973 61.8562 22.0566 61.8562 17.4941C61.8562 12.907 65.5794 9.33008 69.6433 9.33008C71.5779 9.33008 73.123 10.1939 73.9261 11.143H74.0478V9.9748ZM74.291 17.4941C74.291 14.6227 72.3808 12.5299 69.9474 12.5299C67.4896 12.5299 65.4212 14.6227 65.4212 17.4941C65.4212 20.3289 67.4896 22.3852 69.9474 22.3852C72.381 22.3975 74.2912 20.3289 74.2912 17.4941" fill="#333533"/>
<path d="M42.6203 17.4326C42.6203 22.117 38.9703 25.5602 34.4928 25.5602C30.0154 25.5602 26.3652 22.1049 26.3652 17.4326C26.3652 12.724 30.0154 9.29297 34.4928 9.29297C38.9703 9.29297 42.6203 12.724 42.6203 17.4326ZM39.0676 17.4326C39.0676 14.5127 36.9504 12.5049 34.4928 12.5049C32.0352 12.5049 29.918 14.5127 29.918 17.4326C29.918 20.3283 32.0352 22.3604 34.4928 22.3604C36.9506 22.3604 39.0676 20.3283 39.0676 17.4326Z" fill="#333533"/>
<path d="M60.372 17.4693C60.372 22.1537 56.7218 25.5969 52.2445 25.5969C47.7669 25.5969 44.1169 22.1535 44.1169 17.4693C44.1169 12.7607 47.7669 9.3418 52.2445 9.3418C56.7218 9.3418 60.372 12.7486 60.372 17.4693ZM56.807 17.4693C56.807 14.5494 54.69 12.5416 52.2322 12.5416C49.7744 12.5416 47.6574 14.5494 47.6574 17.4693C47.6574 20.365 49.7746 22.3971 52.2322 22.3971C54.7021 22.3971 56.807 20.3529 56.807 17.4693Z" fill="#333533"/>
<path d="M13.0058 22.0332C7.90776 22.0332 3.91714 17.9207 3.91714 12.8227C3.91714 7.7248 7.90776 3.6123 13.0058 3.6123C15.7556 3.6123 17.763 4.69512 19.2474 6.08223L21.6931 3.63672C19.6248 1.65352 16.8628 0.144531 13.0058 0.144531C6.02202 0.144727 0.145264 5.83906 0.145264 12.8227C0.145264 19.8062 6.02202 25.5008 13.0058 25.5008C16.7777 25.5008 19.6248 24.2598 21.8513 21.948C24.1386 19.6605 24.8443 16.4484 24.8443 13.8447C24.8443 13.0295 24.747 12.19 24.6374 11.5695H13.0058V14.952H21.2916C21.0482 17.0691 20.3791 18.517 19.3935 19.5023C18.2011 20.707 16.3154 22.0332 13.0058 22.0332Z" fill="#333533"/>
</g>
<defs>
<clipPath id="clip0_440_11471">
<rect width="100" height="32.8125" fill="white" transform="translate(0 0.09375)"/>
</clipPath>
</defs>
</svg>
