<svg width="20" height="20" viewBox="0 0 20 20" fill="none" xmlns="http://www.w3.org/2000/svg">
<path d="M9.48185 3.10316L10 3.59831L10.5182 3.10316C12.0212 1.6668 14.0504 1.44183 15.7815 2.10739C17.7172 2.8516 19.25 4.69392 19.25 7.10946C19.25 8.98524 18.4042 10.7258 17.1557 12.3263C15.9078 13.9262 14.26 15.383 12.6611 16.6914L12.661 16.6915L12.6247 16.7212C12.0105 17.2239 11.5451 17.6031 11.143 17.8574C10.7321 18.1171 10.3819 18.25 10 18.25C9.61813 18.25 9.26784 18.1171 8.85687 17.8573C8.45482 17.6031 7.9895 17.2238 7.37533 16.7212L7.37489 16.7208L7.33886 16.6914C7.33881 16.6914 7.33877 16.6913 7.33873 16.6913C5.73996 15.3829 4.09221 13.9261 2.8443 12.3263C1.59587 10.7258 0.75 8.98524 0.75 7.10946C0.75 4.69392 2.28285 2.8516 4.21849 2.10739L3.96103 1.43776L4.21849 2.10739C5.94954 1.44184 7.97871 1.66679 9.48185 3.10316Z" fill="#FF8882" stroke="#333533" stroke-width="1.5"/>
</svg>
