<svg width="current" height="current" viewBox="0 0 34 34" fill="none" xmlns="http://www.w3.org/2000/svg">
<path d="M13.2974 1.5C16.4263 1.5 19.427 2.74221 21.6395 4.95336C23.8519 7.16451 25.0948 10.1635 25.0948 13.2905C25.0948 16.2291 24.024 18.9137 22.2453 20.9634L32.5 31.2121L31.2114 32.5L20.9567 22.2513C18.8245 24.0799 16.107 25.0839 13.2974 25.081C10.1686 25.081 7.16783 23.8388 4.95539 21.6277C2.74294 19.4165 1.5 16.4176 1.5 13.2905C1.5 10.1635 2.74294 7.16451 4.95539 4.95336C7.16783 2.74221 10.1686 1.5 13.2974 1.5ZM13.2974 3.31393C10.6499 3.31393 8.11085 4.36503 6.23878 6.236C4.36671 8.10698 3.31499 10.6446 3.31499 13.2905C3.31499 15.9365 4.36671 18.4741 6.23878 20.345C8.11085 22.216 10.6499 23.2671 13.2974 23.2671C14.6083 23.2671 15.9064 23.0091 17.1175 22.5077C18.3287 22.0063 19.4291 21.2715 20.3561 20.345C21.283 19.4186 22.0183 18.3188 22.52 17.1084C23.0217 15.898 23.2799 14.6007 23.2799 13.2905C23.2799 11.9804 23.0217 10.6831 22.52 9.47264C22.0183 8.26223 21.283 7.16242 20.3561 6.236C19.4291 5.30959 18.3287 4.57472 17.1175 4.07335C15.9064 3.57198 14.6083 3.31393 13.2974 3.31393Z" fill="#0B0B0B" stroke="#333533" stroke-width="1.5"/>
</svg>
